<svg version="1.1" xmlns="http://www.w3.org/2000/svg" viewBox="0 0 356.6327261381805 144.5" width="356.6327261381805" height="144.5">
  <!-- svg-source:excalidraw -->
  
  <defs>
    <style>
      @font-face {
        font-family: "Virgil";
        src: url("https://excalidraw.com/Virgil.woff2");
      }
      @font-face {
        font-family: "Cascadia";
        src: url("https://excalidraw.com/Cascadia.woff2");
      }
    </style>
  </defs>
  <rect x="0" y="0" width="356.6327261381805" height="144.5" fill="#ffffff"></rect><g stroke-linecap="round"><g transform="translate(11.5 90.56395348837208) rotate(0 167.27130492955536 0)"><path d="M-0.7 -0.51 C54.89 -0.57, 278.33 -0.16, 334.28 -0.19 M1.13 -1.82 C56.48 -1.71, 277.64 0.9, 333.2 1.24" stroke="#000000" stroke-width="1" fill="none"></path></g></g><g stroke-linecap="round"><g transform="translate(10 39.13372093023253) rotate(0 168.31636306909024 0)"><path d="M0.97 0.78 C57.08 1.05, 280.55 0.71, 336.46 0.59 M0.03 0.14 C55.98 0.15, 279.5 -1.43, 335.42 -1.22" stroke="#000000" stroke-width="1" fill="none"></path></g></g><g transform="translate(25.886235903628005 62.295784883720955) rotate(0 1.4375686645507812 6.638808139534888)"><text x="0" y="9" font-family="Virgil GS, Segoe UI Emoji" font-size="10.622093023255815px" fill="#000000" text-anchor="start" style="white-space: pre;" direction="ltr">1</text></g><g transform="translate(23.544063347482734 105.4905523255814) rotate(0 3.7769393920898438 6.638808139534888)"><text x="0" y="9" font-family="Virgil GS, Segoe UI Emoji" font-size="10.622093023255815px" fill="#000000" text-anchor="start" style="white-space: pre;" direction="ltr">2</text></g><g transform="translate(58.93505171957577 20.840116279069775) rotate(0 30.321632385253906 6.638808139534888)"><text x="0" y="9" font-family="Virgil GS, Segoe UI Emoji" font-size="10.622093023255815px" fill="#000000" text-anchor="start" style="white-space: pre;" direction="ltr">Note taking</text></g><g transform="translate(142.157435440506 20.25) rotate(0 20.7625732421875 6.638808139534888)"><text x="0" y="9" font-family="Virgil GS, Segoe UI Emoji" font-size="10.622093023255815px" fill="#000000" text-anchor="start" style="white-space: pre;" direction="ltr">Capture</text></g><g transform="translate(215.62691218469206 20.840116279069775) rotate(0 25.202590942382812 6.638808139534888)"><text x="0" y="9" font-family="Virgil GS, Segoe UI Emoji" font-size="10.622093023255815px" fill="#000000" text-anchor="start" style="white-space: pre;" direction="ltr">Reference</text></g><g transform="translate(66.17064742270082 55.656976744186096) rotate(0 23.086036682128878 13.277616279069761)"><text x="23.086036682128906" y="8.722383720930232" font-family="Virgil GS, Segoe UI Emoji" font-size="10.622093023255815px" fill="#000000" text-anchor="middle" style="white-space: pre;" direction="ltr">Org-roam</text><text x="23.086036682128906" y="22" font-family="Virgil GS, Segoe UI Emoji" font-size="10.622093023255815px" fill="#000000" text-anchor="middle" style="white-space: pre;" direction="ltr">Emacs</text></g><g transform="translate(146.9060142329006 55.65697674418607) rotate(0 23.086036682128906 13.277616279069775)"><text x="23.086036682128906" y="8.722383720930232" font-family="Virgil GS, Segoe UI Emoji" font-size="10.622093023255815px" fill="#000000" text-anchor="middle" style="white-space: pre;" direction="ltr">Org-roam</text><text x="23.086036682128906" y="22" font-family="Virgil GS, Segoe UI Emoji" font-size="10.622093023255815px" fill="#000000" text-anchor="middle" style="white-space: pre;" direction="ltr">Emacs</text></g><g transform="translate(225.36383078934318 62.295784883720984) rotate(0 17.356956481933594 6.6388081395348735)"><text x="0" y="9" font-family="Virgil GS, Segoe UI Emoji" font-size="10.622093023255815px" fill="#000000" text-anchor="start" style="white-space: pre;" direction="ltr">Jabref</text></g><g transform="translate(226.86383078934318 105.4905523255814) rotate(0 9.452964782714844 6.638808139534888)"><text x="0" y="9" font-family="Virgil GS, Segoe UI Emoji" font-size="10.622093023255815px" fill="#000000" text-anchor="start" style="white-space: pre;" direction="ltr">ebib</text></g><g transform="translate(86.0844734114703 105.4905523255814) rotate(0 3.172210693359375 6.638808139534888)"><text x="0" y="9" font-family="Virgil GS, Segoe UI Emoji" font-size="10.622093023255815px" fill="#000000" text-anchor="start" style="white-space: pre;" direction="ltr">X</text></g><g stroke-linecap="round"><g transform="translate(131 14) rotate(0 0 59.25)"><path d="M0.61 -0.99 C0.78 18.79, 0.36 99.56, 0.18 119.64 M-0.54 1.1 C-0.43 20.49, -0.51 98.69, -0.68 118.11" stroke="#000000" stroke-width="1" fill="none"></path></g></g><g stroke-linecap="round"><g transform="translate(206.5 10) rotate(0 0 62.25)"><path d="M-0.19 -1 C-0.5 19.61, -0.7 104.09, -0.76 124.9 M-1.74 1.08 C-1.76 21.83, 1.53 102.36, 1.55 122.99" stroke="#000000" stroke-width="1" fill="none"></path></g></g><g stroke-linecap="round"><g transform="translate(52.5 18.94804117158054) rotate(0 0 54.5)"><path d="M0.24 -0.24 C0.14 17.96, -0.3 92.11, -0.5 110.19 M-1.1 -1.41 C-1.4 16.4, -2.13 90.27, -1.71 108.7" stroke="#000000" stroke-width="1" fill="none"></path></g></g><g stroke-linecap="round" transform="translate(151.74139027564433 108.94804117158054) rotate(0 13.5 4.5)"><path d="M14.63 0.37 C18.54 2.1, 22.11 3.38, 28.19 6.04 M13.39 -0.35 C18.07 1.06, 22.15 3.96, 26.7 5.65 M25.84 5.88 C24.14 6.99, 20.53 7.08, 12.98 8.58 M27.47 5.16 C23.71 5.96, 21.06 7, 14.6 9.05 M14.4 7.93 C8.37 8.36, 5.38 6.26, -0.8 6.03 M14.3 8.37 C8.89 7.09, 3.66 5.95, -0.12 5.03 M-0.91 4.43 C2.35 2.7, 8.62 2.64, 13.05 0.58 M0.64 5.37 C4.15 4.49, 6.63 3.25, 13.9 0.4" stroke="#000000" stroke-width="1" fill="none"></path></g></svg>