<svg version="1.1" xmlns="http://www.w3.org/2000/svg" viewBox="0 0 343.08866279069775 121.5" width="343.08866279069775" height="121.5">
  <!-- svg-source:excalidraw -->
  
  <defs>
    <style>
      @font-face {
        font-family: "Virgil";
        src: url("https://excalidraw.com/Virgil.woff2");
      }
      @font-face {
        font-family: "Cascadia";
        src: url("https://excalidraw.com/Cascadia.woff2");
      }
    </style>
  </defs>
  <rect x="0" y="0" width="343.08866279069775" height="121.5" fill="#ffffff"></rect><g stroke-linecap="round"><g transform="translate(37.145348837209326 80.81395348837208) rotate(0 147.67659883720933 0)"><path d="M-0.7 -0.51 C48.36 -0.57, 245.67 -0.16, 295.09 -0.19 M1.13 -1.82 C49.95 -1.71, 244.98 0.9, 294.01 1.24" stroke="#000000" stroke-width="1" fill="none"></path></g></g><g stroke-linecap="round"><g transform="translate(37.7354651162791 28.883720930232528) rotate(0 147.67659883720933 0)"><path d="M0.97 0.78 C50.2 1.05, 246.15 0.71, 295.18 0.59 M0.03 0.14 C49.1 0.15, 245.1 -1.43, 294.14 -1.22" stroke="#000000" stroke-width="1" fill="none"></path></g></g><g transform="translate(12.342172556145272 43.046511627906966) rotate(0 1.439293118410319 6.638808139534888)"><text x="0" y="9" font-family="Virgil GS, Segoe UI Emoji" font-size="10.622093023255815px" fill="#000000" text-anchor="start" style="white-space: pre;" direction="ltr">1</text></g><g transform="translate(10 98.22238372093022) rotate(0 3.781465674555591 6.638808139534888)"><text x="0" y="9" font-family="Virgil GS, Segoe UI Emoji" font-size="10.622093023255815px" fill="#000000" text-anchor="start" style="white-space: pre;" direction="ltr">2</text></g><g transform="translate(40.390988372093034 10.590116279069775) rotate(0 30.35795326011123 6.638808139534888)"><text x="0" y="9" font-family="Virgil GS, Segoe UI Emoji" font-size="10.622093023255815px" fill="#000000" text-anchor="start" style="white-space: pre;" direction="ltr">Note taking</text></g><g transform="translate(128.61337209302326 10) rotate(0 20.787443826364893 6.638808139534888)"><text x="0" y="9" font-family="Virgil GS, Segoe UI Emoji" font-size="10.622093023255815px" fill="#000000" text-anchor="start" style="white-space: pre;" direction="ltr">Capture</text></g><g transform="translate(202.08284883720933 10.590116279069775) rotate(0 25.232788063759017 6.638808139534888)"><text x="0" y="9" font-family="Virgil GS, Segoe UI Emoji" font-size="10.622093023255815px" fill="#000000" text-anchor="start" style="white-space: pre;" direction="ltr">Reference</text></g><g transform="translate(48.652616279069775 45.70203488372093) rotate(0 23.113685241965356 13.277616279069761)"><text x="23.113685241965364" y="8.722383720930232" font-family="Virgil GS, Segoe UI Emoji" font-size="10.622093023255815px" fill="#000000" text-anchor="middle" style="white-space: pre;" direction="ltr">Org-roam</text><text x="23.113685241965364" y="22" font-family="Virgil GS, Segoe UI Emoji" font-size="10.622093023255815px" fill="#000000" text-anchor="middle" style="white-space: pre;" direction="ltr">Emacs</text></g><g transform="translate(133.33430232558135 47.76744186046511) rotate(0 23.113685241965356 13.277616279069775)"><text x="23.113685241965364" y="8.722383720930232" font-family="Virgil GS, Segoe UI Emoji" font-size="10.622093023255815px" fill="#000000" text-anchor="middle" style="white-space: pre;" direction="ltr">Org-roam</text><text x="23.113685241965364" y="22" font-family="Virgil GS, Segoe UI Emoji" font-size="10.622093023255815px" fill="#000000" text-anchor="middle" style="white-space: pre;" direction="ltr">Emacs</text></g><g transform="translate(211.81976744186045 54.258720930232556) rotate(0 17.377749786820516 6.6388081395348735)"><text x="0" y="9" font-family="Virgil GS, Segoe UI Emoji" font-size="10.622093023255815px" fill="#000000" text-anchor="start" style="white-space: pre;" direction="ltr">Jabref</text></g></svg>